{"accessors" : [{"bufferView" : 0, "byteOffset" : 0, "componentType" : 5123, "count" : 46224, "type" : "SCALAR", "max" : [10687], "min" : [0]}, {"bufferView" : 1, "byteOffset" : 0, "componentType" : 5126, "count" : 10688, "type" : "VEC3", "max" : [0.9304519891738892, 0.6482530236244202, 0.5232340097427368], "min" : [-0.9519540071487427, -0.6936439871788025, -0.5028600096702576], "name" : "POSITION"}, {"bufferView" : 1, "byteOffset" : 12, "componentType" : 5126, "count" : 10688, "type" : "VEC3", "max" : [1.0000044107437134, 1.0000044107437134, 1.0000044107437134], "min" : [-1.0000044107437134, -1.0000044107437134, -1.0000044107437134], "name" : "NORMAL"}, {"bufferView" : 1, "byteOffset" : 24, "componentType" : 5126, "count" : 10688, "type" : "VEC4", "max" : [1.0000044107437134, 1.0000044107437134, 1.0000044107437134, 1], "min" : [-1.0000044107437134, -1.0000044107437134, -1.0000044107437134, 1], "name" : "TANGENT"}, {"bufferView" : 1, "byteOffset" : 40, "componentType" : 5126, "count" : 10688, "type" : "VEC2", "max" : [0.9993789792060852, 0.9993791580200195], "min" : [0.0006208149716258049, 0.02440798282623291], "name" : "TEXCOORD_0"}, {"bufferView" : 0, "byteOffset" : 92448, "componentType" : 5123, "count" : 122700, "type" : "SCALAR", "max" : [25215], "min" : [0]}, {"bufferView" : 2, "byteOffset" : 0, "componentType" : 5126, "count" : 25216, "type" : "VEC3", "max" : [1, 0.7736139893531799, 0.6620010137557983], "min" : [-1, -0.7736139893531799, -0.6620010137557983], "name" : "POSITION"}, {"bufferView" : 2, "byteOffset" : 12, "componentType" : 5126, "count" : 25216, "type" : "VEC3", "max" : [1.0000038146972656, 1.0000044107437134, 1.0000044107437134], "min" : [-1.0000044107437134, -1.0000044107437134, -1.0000044107437134], "name" : "NORMAL"}, {"bufferView" : 2, "byteOffset" : 24, "componentType" : 5126, "count" : 25216, "type" : "VEC4", "max" : [1.0000044107437134, 0.9972225427627563, 1.0000044107437134, 1], "min" : [-0.99997478723526, -1.0000044107437134, -1.0000044107437134, 1], "name" : "TANGENT"}, {"bufferView" : 2, "byteOffset" : 40, "componentType" : 5126, "count" : 25216, "type" : "VEC2", "max" : [0.9994660019874573, 0.9994661211967468], "min" : [0.0005338839837349951, 0.0295640230178833], "name" : "TEXCOORD_0"}], "asset" : {"generator" : "Aspose.3D 24.9.0", "version" : "2.0"}, "buffers" : [{"uri" : "data:application/octet-stream;base64,", "byteLength" : 2061252}], "bufferViews" : [{"buffer" : 0, "byteOffset" : 0, "byteLength" : 337848, "target" : 34963}, {"buffer" : 0, "byteOffset" : 337852, "byteLength" : 513024, "byteStride" : 48, "target" : 34962}, {"buffer" : 0, "byteOffset" : 850880, "byteLength" : 1210368, "byteStride" : 48, "target" : 34962}], "meshes" : [{"primitives" : [{"attributes" : {"POSITION" : 1, "NORMAL" : 2, "TANGENT" : 3, "TEXCOORD_0" : 4}, "indices" : 0, "mode" : 4}], "name" : ""}, {"primitives" : [{"attributes" : {"POSITION" : 6, "NORMAL" : 7, "TANGENT" : 8, "TEXCOORD_0" : 9}, "indices" : 5, "mode" : 4}], "name" : ""}], "nodes" : [{"mesh" : 0, "name" : "Part1"}, {"mesh" : 1, "name" : "Part2"}], "scene" : 0, "scenes" : [{"nodes" : [0, 1]}]}