<?xml version="1.0" encoding="UTF-8"?>
<svg version="1.1" xmlns="http://www.w3.org/2000/svg" width="880" height="526">
<path d="M0 0 C290.4 0 580.8 0 880 0 C880 173.58 880 347.16 880 526 C589.6 526 299.2 526 0 526 C0 352.42 0 178.84 0 0 Z " fill="#3A3D53" transform="translate(0,0)"/>
<path d="M0 0 C0.93714844 0.43183594 1.87429688 0.86367187 2.83984375 1.30859375 C10.17060341 4.93953377 14.96130146 8.79446934 17.98828125 16.5234375 C22.46141265 30.64242099 21.06557004 45.2288002 20.20043945 59.79003906 C20.06063321 62.15659998 19.92938748 64.52353774 19.79882812 66.890625 C19.71144039 68.4088832 19.62356817 69.9271136 19.53515625 71.4453125 C19.49656998 72.14633087 19.4579837 72.84734924 19.41822815 73.5696106 C19.21867 76.84133837 18.8033622 79.83366686 18 83 C17.83163123 85.17454335 17.70523311 87.3524811 17.60546875 89.53125 C17.53650391 90.81773437 17.46753906 92.10421875 17.39648438 93.4296875 C17.25554323 96.1117621 17.13097047 98.79319238 17.01367188 101.4765625 C16.40333145 112.34386287 15.10361536 123.10416965 7 131 C3.70493694 133.1967087 1.93085334 133.46872048 -1.94921875 133.96484375 C-3.17286133 134.12364014 -4.39650391 134.28243652 -5.65722656 134.44604492 C-7.00054795 134.61070653 -8.34397601 134.77449981 -9.6875 134.9375 C-10.37404663 135.02270905 -11.06059326 135.10791809 -11.76794434 135.19570923 C-16.84219185 135.82476208 -21.91980379 136.42108488 -27 137 C-27.67444153 137.07710205 -28.34888306 137.1542041 -29.04376221 137.23364258 C-44.18638822 138.9500951 -59.2897365 140.16865101 -74.52636719 140.56225586 C-75.25614194 140.58222622 -75.9859167 140.60219658 -76.73780584 140.6227721 C-97.33071151 141.17775408 -117.93009981 141.22487823 -138.5291605 141.30332303 C-144.16795257 141.32568567 -149.80672193 141.35284031 -155.44549561 141.37937927 C-164.89854906 141.42323065 -174.35161124 141.4640768 -183.8046875 141.50268555 C-197.03144466 141.55671248 -210.25817211 141.6163637 -223.4849 141.67708123 C-233.89097001 141.72463674 -244.29704706 141.77062284 -254.703125 141.81640625 C-256.33910818 141.82363138 -256.33910818 141.82363138 -258.00814152 141.83100247 C-270.05267244 141.88402988 -282.09720052 141.9340753 -294.14178634 141.97295827 C-299.21486341 141.98949354 -304.28789056 142.01035881 -309.36093163 142.03557903 C-312.30270247 142.0492382 -315.24447495 142.05879722 -318.18626547 142.067047 C-320.13649648 142.07373603 -322.08670842 142.08541365 -324.03691483 142.09727573 C-325.74664034 142.10065905 -325.74664034 142.10065905 -327.49090576 142.10411072 C-328.95603167 142.11021315 -328.95603167 142.11021315 -330.45075607 142.11643887 C-332.7988028 142.00918985 -334.74696986 141.62684419 -337 141 C-338.63309452 140.9153891 -340.26926165 140.88221524 -341.90454102 140.88647461 C-343.36108849 140.88658791 -343.36108849 140.88658791 -344.84706116 140.88670349 C-346.40969948 140.89444542 -346.40969948 140.89444542 -348.00390625 140.90234375 C-349.07873764 140.9037587 -350.15356903 140.90517365 -351.26097107 140.90663147 C-354.6948424 140.91222635 -358.12864842 140.92477047 -361.5625 140.9375 C-363.87955634 140.94251632 -366.19661372 140.947079 -368.51367188 140.95117188 C-373.61110786 140.96100708 -378.70851022 140.97522005 -383.80592346 140.99327087 C-385.53727562 140.99858085 -387.2686397 141 -389 141 C-389.99 138.525 -389.99 138.525 -391 136 C-391.598125 136.33 -392.19625 136.66 -392.8125 137 C-395 138 -395 138 -398 138 C-398 138.99 -398 139.98 -398 141 C-398.99 141 -399.98 141 -401 141 C-404 135.25 -404 135.25 -404 133 C-404.99 133.33 -405.98 133.66 -407 134 C-406.67 135.32 -406.34 136.64 -406 138 C-407.32 138 -408.64 138 -410 138 C-410 138.99 -410 139.98 -410 141 C-414.46839215 141.21278058 -417.82262526 140.59138085 -422 139 C-422 138.01 -422 137.02 -422 136 C-422.56074219 136.32613281 -423.12148438 136.65226563 -423.69921875 136.98828125 C-426.2826616 138.12429432 -428.0051062 138.23613202 -430.8125 138.1875 C-432.02873047 138.17783203 -432.02873047 138.17783203 -433.26953125 138.16796875 C-436 138 -436 138 -439.23022461 137.52319336 C-450.82403976 135.9141301 -462.58179468 135.91451669 -474.265625 135.7890625 C-476.19940002 135.76752106 -476.19940002 135.76752106 -478.17224121 135.74554443 C-483.54398906 135.68829302 -488.91564441 135.63230002 -494.28759766 135.59863281 C-514.65232844 135.46379884 -534.77798103 135.20668751 -554.1875 128.375 C-555.59418945 127.90707031 -555.59418945 127.90707031 -557.02929688 127.4296875 C-563.44680632 125.27659684 -563.44680632 125.27659684 -566 124 C-565.34 122.02 -564.68 120.04 -564 118 C-564.66 117.34 -565.32 116.68 -566 116 C-568.08346925 110.6861977 -569.2726355 105.72534541 -569 100 C-569.3403125 98.948125 -569.3403125 98.948125 -569.6875 97.875 C-570 96 -570 96 -568.625 94 C-567.820625 93.01 -567.820625 93.01 -567 92 C-566.29485154 89.85266073 -566.29485154 89.85266073 -566 88 C-564.741875 87.938125 -563.48375 87.87625 -562.1875 87.8125 C-559.98180249 87.60246806 -559.98180249 87.60246806 -558 87 C-556.31865712 84.64225405 -556.31865712 84.64225405 -555 82 C-549.6632198 78.30530601 -543.28960008 77.86507445 -537 77 C-537.99 75.329375 -537.99 75.329375 -539 73.625 C-541.40346929 68.84363025 -541.80577315 64.2750033 -541 59 C-540.34 58.01 -539.68 57.02 -539 56 C-539.69867187 55.87882812 -540.39734375 55.75765625 -541.1171875 55.6328125 C-542.02726562 55.46523438 -542.93734375 55.29765625 -543.875 55.125 C-544.77992188 54.96257812 -545.68484375 54.80015625 -546.6171875 54.6328125 C-549 54 -549 54 -551 52 C-553.57061311 51.35232207 -553.57061311 51.35232207 -556 51 C-556.23976563 50.14148438 -556.47953125 49.28296875 -556.7265625 48.3984375 C-558.14173614 44.62174712 -560.00262318 41.88012168 -562.375 38.625 C-570.13255013 27.73003445 -570.13255013 27.73003445 -571.625 21.3125 C-570.83201887 18.37846982 -569.35889441 16.92536051 -566.95343018 15.12145996 C-560.49700011 11.41483768 -552.74436465 10.47305964 -545.453125 9.71875 C-544.57312836 9.62012665 -543.69313171 9.5215033 -542.78646851 9.41989136 C-539.94193526 9.10367945 -537.0961616 8.8011745 -534.25 8.5 C-532.2465276 8.28256476 -530.24311009 8.0646232 -528.23974609 7.84619141 C-524.27401799 7.41559223 -520.30769794 6.9911592 -516.34082031 6.57128906 C-512.00276239 6.11069291 -507.6691199 5.62143403 -503.3359375 5.1171875 C-461.97375734 0.44161651 -420.27274241 -0.44571888 -378.68793559 -0.37438464 C-372.76488126 -0.36866947 -366.84187579 -0.38357754 -360.9188385 -0.39674377 C-343.4305404 -0.4321751 -325.94224951 -0.43921693 -308.45391846 -0.43664551 C-291.24915872 -0.43429532 -274.04454334 -0.44829391 -256.83984375 -0.49609375 C-255.64239414 -0.49924001 -254.44494454 -0.50238627 -253.21120858 -0.50562787 C-212.41972688 -0.62179639 -171.78403461 -1.89159156 -131.06112146 -4.20735836 C-113.72929136 -5.19064314 -96.40135473 -5.58924465 -79.04305935 -5.79594326 C-72.28903517 -5.8768825 -65.63740544 -6.12914406 -58.90844727 -6.77075195 C-39.30194362 -8.31616511 -18.05197419 -8.77319998 0 0 Z " fill="#FBFBFB" transform="translate(724,210)"/>
<path d="M0 0 C0.93714844 0.43183594 1.87429688 0.86367187 2.83984375 1.30859375 C10.17060341 4.93953377 14.96130146 8.79446934 17.98828125 16.5234375 C22.46141265 30.64242099 21.06557004 45.2288002 20.20043945 59.79003906 C20.06063321 62.15659998 19.92938748 64.52353774 19.79882812 66.890625 C19.71144039 68.4088832 19.62356817 69.9271136 19.53515625 71.4453125 C19.49656998 72.14633087 19.4579837 72.84734924 19.41822815 73.5696106 C19.21867 76.84133837 18.8033622 79.83366686 18 83 C17.83163123 85.17454335 17.70523311 87.3524811 17.60546875 89.53125 C17.53650391 90.81773437 17.46753906 92.10421875 17.39648438 93.4296875 C17.25554323 96.1117621 17.13097047 98.79319238 17.01367188 101.4765625 C16.40333145 112.34386287 15.10361536 123.10416965 7 131 C3.70493694 133.1967087 1.93085334 133.46872048 -1.94921875 133.96484375 C-3.17286133 134.12364014 -4.39650391 134.28243652 -5.65722656 134.44604492 C-7.00054795 134.61070653 -8.34397601 134.77449981 -9.6875 134.9375 C-10.37404663 135.02270905 -11.06059326 135.10791809 -11.76794434 135.19570923 C-16.84219185 135.82476208 -21.91980379 136.42108488 -27 137 C-27.67444153 137.07710205 -28.34888306 137.1542041 -29.04376221 137.23364258 C-44.18638822 138.9500951 -59.2897365 140.16865101 -74.52636719 140.56225586 C-75.25614194 140.58222622 -75.9859167 140.60219658 -76.73780584 140.6227721 C-97.33071151 141.17775408 -117.93009981 141.22487823 -138.5291605 141.30332303 C-144.16795257 141.32568567 -149.80672193 141.35284031 -155.44549561 141.37937927 C-164.89854906 141.42323065 -174.35161124 141.4640768 -183.8046875 141.50268555 C-197.03144466 141.55671248 -210.25817211 141.6163637 -223.4849 141.67708123 C-233.89097001 141.72463674 -244.29704706 141.77062284 -254.703125 141.81640625 C-256.33910818 141.82363138 -256.33910818 141.82363138 -258.00814152 141.83100247 C-270.05267244 141.88402988 -282.09720052 141.9340753 -294.14178634 141.97295827 C-299.21486341 141.98949354 -304.28789056 142.01035881 -309.36093163 142.03557903 C-312.30270247 142.0492382 -315.24447495 142.05879722 -318.18626547 142.067047 C-320.13649648 142.07373603 -322.08670842 142.08541365 -324.03691483 142.09727573 C-325.74664034 142.10065905 -325.74664034 142.10065905 -327.49090576 142.10411072 C-328.95603167 142.11021315 -328.95603167 142.11021315 -330.45075607 142.11643887 C-332.7988028 142.00918985 -334.74696986 141.62684419 -337 141 C-338.63309452 140.9153891 -340.26926165 140.88221524 -341.90454102 140.88647461 C-343.36108849 140.88658791 -343.36108849 140.88658791 -344.84706116 140.88670349 C-346.40969948 140.89444542 -346.40969948 140.89444542 -348.00390625 140.90234375 C-349.07873764 140.9037587 -350.15356903 140.90517365 -351.26097107 140.90663147 C-354.6948424 140.91222635 -358.12864842 140.92477047 -361.5625 140.9375 C-363.87955634 140.94251632 -366.19661372 140.947079 -368.51367188 140.95117188 C-373.61110786 140.96100708 -378.70851022 140.97522005 -383.80592346 140.99327087 C-385.53727562 140.99858085 -387.2686397 141 -389 141 C-389.99 138.525 -389.99 138.525 -391 136 C-391.598125 136.33 -392.19625 136.66 -392.8125 137 C-395 138 -395 138 -398 138 C-398 138.99 -398 139.98 -398 141 C-398.99 141 -399.98 141 -401 141 C-404 135.25 -404 135.25 -404 133 C-404.99 133.33 -405.98 133.66 -407 134 C-406.67 135.32 -406.34 136.64 -406 138 C-407.32 138 -408.64 138 -410 138 C-410 138.99 -410 139.98 -410 141 C-414.46839215 141.21278058 -417.82262526 140.59138085 -422 139 C-422 138.01 -422 137.02 -422 136 C-422.56074219 136.32613281 -423.12148438 136.65226563 -423.69921875 136.98828125 C-426.2826616 138.12429432 -428.0051062 138.23613202 -430.8125 138.1875 C-432.02873047 138.17783203 -432.02873047 138.17783203 -433.26953125 138.16796875 C-436 138 -436 138 -439.23022461 137.52319336 C-450.82403976 135.9141301 -462.58179468 135.91451669 -474.265625 135.7890625 C-476.19940002 135.76752106 -476.19940002 135.76752106 -478.17224121 135.74554443 C-483.54398906 135.68829302 -488.91564441 135.63230002 -494.28759766 135.59863281 C-514.65232844 135.46379884 -534.77798103 135.20668751 -554.1875 128.375 C-555.59418945 127.90707031 -555.59418945 127.90707031 -557.02929688 127.4296875 C-563.44680632 125.27659684 -563.44680632 125.27659684 -566 124 C-565.34 122.02 -564.68 120.04 -564 118 C-564.66 117.34 -565.32 116.68 -566 116 C-568.08346925 110.6861977 -569.2726355 105.72534541 -569 100 C-569.3403125 98.948125 -569.3403125 98.948125 -569.6875 97.875 C-570 96 -570 96 -568.625 94 C-567.820625 93.01 -567.820625 93.01 -567 92 C-566.29485154 89.85266073 -566.29485154 89.85266073 -566 88 C-564.741875 87.938125 -563.48375 87.87625 -562.1875 87.8125 C-559.98180249 87.60246806 -559.98180249 87.60246806 -558 87 C-556.31865712 84.64225405 -556.31865712 84.64225405 -555 82 C-549.6632198 78.30530601 -543.28960008 77.86507445 -537 77 C-537.99 75.329375 -537.99 75.329375 -539 73.625 C-541.40346929 68.84363025 -541.80577315 64.2750033 -541 59 C-540.34 58.01 -539.68 57.02 -539 56 C-539.69867187 55.87882812 -540.39734375 55.75765625 -541.1171875 55.6328125 C-542.02726562 55.46523438 -542.93734375 55.29765625 -543.875 55.125 C-544.77992188 54.96257812 -545.68484375 54.80015625 -546.6171875 54.6328125 C-549 54 -549 54 -551 52 C-553.57061311 51.35232207 -553.57061311 51.35232207 -556 51 C-556.23976563 50.14148438 -556.47953125 49.28296875 -556.7265625 48.3984375 C-558.14173614 44.62174712 -560.00262318 41.88012168 -562.375 38.625 C-570.13255013 27.73003445 -570.13255013 27.73003445 -571.625 21.3125 C-570.83201887 18.37846982 -569.35889441 16.92536051 -566.95343018 15.12145996 C-560.49700011 11.41483768 -552.74436465 10.47305964 -545.453125 9.71875 C-544.57312836 9.62012665 -543.69313171 9.5215033 -542.78646851 9.41989136 C-539.94193526 9.10367945 -537.0961616 8.8011745 -534.25 8.5 C-532.2465276 8.28256476 -530.24311009 8.0646232 -528.23974609 7.84619141 C-524.27401799 7.41559223 -520.30769794 6.9911592 -516.34082031 6.57128906 C-512.00276239 6.11069291 -507.6691199 5.62143403 -503.3359375 5.1171875 C-461.97375734 0.44161651 -420.27274241 -0.44571888 -378.68793559 -0.37438464 C-372.76488126 -0.36866947 -366.84187579 -0.38357754 -360.9188385 -0.39674377 C-343.4305404 -0.4321751 -325.94224951 -0.43921693 -308.45391846 -0.43664551 C-291.24915872 -0.43429532 -274.04454334 -0.44829391 -256.83984375 -0.49609375 C-255.64239414 -0.49924001 -254.44494454 -0.50238627 -253.21120858 -0.50562787 C-212.41972688 -0.62179639 -171.78403461 -1.89159156 -131.06112146 -4.20735836 C-113.72929136 -5.19064314 -96.40135473 -5.58924465 -79.04305935 -5.79594326 C-72.28903517 -5.8768825 -65.63740544 -6.12914406 -58.90844727 -6.77075195 C-39.30194362 -8.31616511 -18.05197419 -8.77319998 0 0 Z M-495.42681932 24.80376863 C-497.75953 28.06033822 -497.55841865 31.24396149 -497.51757812 35.1015625 C-497.5245874 35.91502136 -497.53159668 36.72848022 -497.53881836 37.56658936 C-497.55641059 40.25307442 -497.54477163 42.9385044 -497.53125 45.625 C-497.53394457 47.49300336 -497.5378267 49.36100535 -497.54284668 51.22900391 C-497.54874338 55.14303955 -497.54017328 59.05670995 -497.52148438 62.97070312 C-497.49869468 67.98809889 -497.51181685 73.00463881 -497.53577423 78.02200317 C-497.55022759 81.87905324 -497.54562835 85.73590037 -497.53526306 89.59295654 C-497.53259449 91.44293316 -497.5358701 93.29292819 -497.54518127 95.1428833 C-497.55533937 97.72856457 -497.5398571 100.31285951 -497.51757812 102.8984375 C-497.52567505 103.66323425 -497.53377197 104.42803101 -497.54211426 105.21600342 C-497.49071005 108.43583433 -497.32641542 110.54430931 -495.42681932 113.19623137 C-492.21017701 115.58704738 -489.5180383 115.55548501 -485.66295624 115.50336456 C-484.54603668 115.51208521 -484.54603668 115.51208521 -483.40655309 115.52098203 C-480.89729742 115.53564583 -478.3890102 115.52166769 -475.87976074 115.50793457 C-474.06836682 115.51254098 -472.25697664 115.51889214 -470.44559431 115.52684355 C-465.45696216 115.54359578 -460.4686347 115.5352638 -455.48000121 115.52289867 C-450.10432696 115.51387455 -444.72870631 115.52780477 -439.3530426 115.53881836 C-428.81776065 115.55663643 -418.28259246 115.55274897 -407.74730599 115.5411678 C-399.18764251 115.53214666 -390.62801098 115.53090375 -382.06834412 115.53526306 C-380.24331402 115.53618246 -380.24331402 115.53618246 -378.38141462 115.53712043 C-375.91000067 115.53839929 -373.43858673 115.53969614 -370.9671728 115.5410108 C-347.77427195 115.55242623 -324.58143427 115.53928779 -301.38854378 115.51780933 C-281.47335301 115.49993749 -261.55825549 115.50304133 -241.64306641 115.52148438 C-218.53507529 115.54287408 -195.42713959 115.5513275 -172.31913996 115.53903532 C-169.85664527 115.53776108 -167.39415058 115.5365036 -164.93165588 115.53526306 C-163.71995428 115.53464596 -162.50825267 115.53402886 -161.25983283 115.53339306 C-152.70709817 115.52993445 -144.15439855 115.53577948 -135.60166931 115.54518127 C-125.18353951 115.55638154 -114.7655303 115.5534028 -104.34741437 115.5320583 C-99.02847362 115.52152131 -93.70973418 115.51747106 -88.39079475 115.53065491 C-83.52645859 115.54252989 -78.66251131 115.53609748 -73.79821068 115.5147447 C-72.0338063 115.51025779 -70.26936941 115.51259138 -68.50498575 115.52224785 C-66.11519789 115.53432895 -63.7267599 115.5220229 -61.33704376 115.50336456 C-60.29805946 115.51741156 -60.29805946 115.51741156 -59.23808557 115.53174233 C-55.95521819 115.48015241 -54.23728056 115.17636221 -51.57318068 113.19623137 C-49.24047 109.93966178 -49.44158135 106.75603851 -49.48242188 102.8984375 C-49.4754126 102.08497864 -49.46840332 101.27151978 -49.46118164 100.43341064 C-49.44358941 97.74692558 -49.45522837 95.0614956 -49.46875 92.375 C-49.46605543 90.50699664 -49.4621733 88.63899465 -49.45715332 86.77099609 C-49.45125662 82.85696045 -49.45982672 78.94329005 -49.47851562 75.02929688 C-49.50130532 70.01190111 -49.48818315 64.99536119 -49.46422577 59.97799683 C-49.44977241 56.12094676 -49.45437165 52.26409963 -49.46473694 48.40704346 C-49.46740551 46.55706684 -49.4641299 44.70707181 -49.45481873 42.8571167 C-49.44466063 40.27143543 -49.4601429 37.68714049 -49.48242188 35.1015625 C-49.47027649 33.95436737 -49.47027649 33.95436737 -49.45788574 32.78399658 C-49.50928995 29.56416567 -49.67358458 27.45569069 -51.57318068 24.80376863 C-54.78982299 22.41295262 -57.4819617 22.44451499 -61.33704376 22.49663544 C-62.0816568 22.49082167 -62.82626984 22.48500791 -63.59344691 22.47901797 C-66.10270258 22.46435417 -68.6109898 22.47833231 -71.12023926 22.49206543 C-72.93163318 22.48745902 -74.74302336 22.48110786 -76.55440569 22.47315645 C-81.54303784 22.45640422 -86.5313653 22.4647362 -91.51999879 22.47710133 C-96.89567304 22.48612545 -102.27129369 22.47219523 -107.6469574 22.46118164 C-118.18223935 22.44336357 -128.71740754 22.44725103 -139.25269401 22.4588322 C-147.81235749 22.46785334 -156.37198902 22.46909625 -164.93165588 22.46473694 C-166.75668598 22.46381754 -166.75668598 22.46381754 -168.61858538 22.46287957 C-171.08999933 22.46160071 -173.56141327 22.46030386 -176.0328272 22.4589892 C-199.22572805 22.44757377 -222.41856573 22.46071221 -245.61145622 22.48219067 C-265.52664699 22.50006251 -285.44174451 22.49695867 -305.35693359 22.47851562 C-328.46492471 22.45712592 -351.57286041 22.4486725 -374.68086004 22.46096468 C-377.14335473 22.46223892 -379.60584942 22.4634964 -382.06834412 22.46473694 C-383.28004572 22.46535404 -384.49174733 22.46597114 -385.74016717 22.46660694 C-394.29290183 22.47006555 -402.84560145 22.46422052 -411.39833069 22.45481873 C-421.81646049 22.44361846 -432.2344697 22.4465972 -442.65258563 22.4679417 C-447.97152638 22.47847869 -453.29026582 22.48252894 -458.60920525 22.46934509 C-463.47354141 22.45747011 -468.33748869 22.46390252 -473.20178932 22.4852553 C-474.9661937 22.48974221 -476.73063059 22.48740862 -478.49501425 22.47775215 C-480.88480211 22.46567105 -483.2732401 22.4779771 -485.66295624 22.49663544 C-486.35561244 22.48727077 -487.04826865 22.47790611 -487.76191443 22.46825767 C-491.04478181 22.51984759 -492.76271944 22.82363779 -495.42681932 24.80376863 Z " fill="#FDFDFD" transform="translate(724,210)"/>
<path d="M0 0 C0.74461304 -0.00581376 1.48922608 -0.01162753 2.25640315 -0.01761746 C4.76565882 -0.03228127 7.27394604 -0.01830313 9.7831955 -0.00457001 C11.59458942 -0.00917641 13.4059796 -0.01552757 15.21736193 -0.02347898 C20.20599408 -0.04023122 25.19432154 -0.03189924 30.18295503 -0.01953411 C35.55862928 -0.01050999 40.93424992 -0.02444021 46.30991364 -0.0354538 C56.84519559 -0.05327186 67.38036377 -0.04938441 77.91565025 -0.03780323 C86.47531373 -0.0287821 95.03494525 -0.02753918 103.59461212 -0.0318985 C104.81129885 -0.03251143 106.02798559 -0.03312436 107.28154162 -0.03375587 C109.75295557 -0.03503473 112.22436951 -0.03633158 114.69578344 -0.03764623 C137.88868428 -0.04906166 161.08152196 -0.03592322 184.27441245 -0.01444477 C204.18960322 0.00342707 224.10470074 0.00032323 244.01988983 -0.01811981 C267.12788095 -0.03950952 290.23581665 -0.04796294 313.34381628 -0.03567076 C315.80631096 -0.03439652 318.26880565 -0.03313903 320.73130035 -0.0318985 C322.54885277 -0.03097285 322.54885277 -0.03097285 324.40312341 -0.03002849 C332.95585807 -0.02656989 341.50855769 -0.03241491 350.06128693 -0.04181671 C360.47941673 -0.05301698 370.89742594 -0.05003824 381.31554186 -0.02869374 C386.63448262 -0.01815674 391.95322206 -0.0141065 397.27216148 -0.02729034 C402.13649765 -0.03916533 407.00044493 -0.03273292 411.86474556 -0.01138014 C413.62914994 -0.00689322 415.39358683 -0.00922682 417.15797049 -0.01888329 C419.54775834 -0.03096439 421.93619634 -0.01865834 424.32591248 0 C425.01856868 -0.00936466 425.71122488 -0.01872933 426.42487067 -0.02837777 C429.70773805 0.02321215 431.42567568 0.32700235 434.08977556 2.3071332 C436.42248624 5.56370279 436.22137489 8.74732605 436.18053436 12.60492706 C436.19104828 13.82511536 436.19104828 13.82511536 436.2017746 15.06995392 C436.21936682 17.75643898 436.20772787 20.44186896 436.19420624 23.12836456 C436.19690081 24.99636792 436.20078294 26.86436991 436.20580292 28.73236847 C436.21169962 32.64640412 436.20312952 36.56007451 436.18444061 40.47406769 C436.16165092 45.49146345 436.17477308 50.50800338 436.19873047 55.52536774 C436.21318383 59.38241781 436.20858459 63.23926493 436.1982193 67.09632111 C436.19555073 68.94629772 436.19882634 70.79629276 436.20813751 72.64624786 C436.21829561 75.23192914 436.20281334 77.81622407 436.18053436 80.40180206 C436.18863129 81.16659882 436.19672821 81.93139557 436.2050705 82.71936798 C436.15366629 85.93919889 435.98937166 88.04767387 434.08977556 90.69959593 C430.87313325 93.09041194 428.18099453 93.05884957 424.32591248 93.00672913 C423.58129944 93.01254289 422.8366864 93.01835665 422.06950933 93.02434659 C419.56025366 93.0390104 417.05196644 93.02503225 414.54271698 93.01129913 C412.73132306 93.01590554 410.91993287 93.0222567 409.10855055 93.03020811 C404.11991839 93.04696034 399.13159094 93.03862836 394.14295745 93.02626324 C388.7672832 93.01723912 383.39166255 93.03116933 378.01599884 93.04218292 C367.48071689 93.06000099 356.9455487 93.05611353 346.41026223 93.04453236 C337.85059874 93.03551122 329.29096722 93.03426831 320.73130035 93.03862762 C319.51461362 93.03924056 318.29792689 93.03985349 317.04437086 93.04048499 C314.57295691 93.04176385 312.10154297 93.0430607 309.63012904 93.04437536 C286.43722819 93.05579079 263.24439051 93.04265235 240.05150002 93.02117389 C220.13630925 93.00330206 200.22121173 93.00640589 180.30602264 93.02484894 C157.19803153 93.04623865 134.09009583 93.05469206 110.9820962 93.04239988 C108.51960151 93.04112564 106.05710682 93.03986816 103.59461212 93.03862762 C102.38291051 93.03801052 101.17120891 93.03739342 99.92278907 93.03675762 C91.3700544 93.03329902 82.81735479 93.03914404 74.26462555 93.04854584 C63.84649574 93.05974611 53.42848654 93.05676736 43.01037061 93.03542286 C37.69142985 93.02488587 32.37269041 93.02083563 27.05375099 93.03401947 C22.18941483 93.04589446 17.32546755 93.03946205 12.46116692 93.01810926 C10.69676254 93.01362235 8.93232565 93.01595594 7.16794199 93.02561241 C4.77815413 93.03769351 2.38971613 93.02538747 0 93.00672913 C-1.03898431 93.02077612 -1.03898431 93.02077612 -2.09895819 93.0351069 C-5.38182558 92.98351697 -7.0997632 92.67972678 -9.76386309 90.69959593 C-12.09657376 87.44302634 -11.89546241 84.25940308 -11.85462189 80.40180206 C-11.86163116 79.5883432 -11.86864044 78.77488434 -11.87586212 77.93677521 C-11.89345435 75.25029015 -11.8818154 72.56486017 -11.86829376 69.87836456 C-11.87098833 68.0103612 -11.87487046 66.14235921 -11.87989044 64.27436066 C-11.88578714 60.36032501 -11.87721704 56.44665462 -11.85852814 52.53266144 C-11.83573844 47.51526568 -11.84886061 42.49872575 -11.87281799 37.48136139 C-11.88727135 33.62431132 -11.88267211 29.7674642 -11.87230682 25.91040802 C-11.86963826 24.0604314 -11.87291387 22.21043637 -11.88222504 20.36048126 C-11.89238313 17.77479999 -11.87690087 15.19050505 -11.85462189 12.60492706 C-11.86271881 11.84013031 -11.87081573 11.07533356 -11.87915802 10.28736115 C-11.82775381 7.06753024 -11.66345919 4.95905526 -9.76386309 2.3071332 C-6.54722078 -0.08368282 -3.85508206 -0.05212045 0 0 Z M-8.33704376 4.50336456 C-8.44275747 7.07898876 -8.48382499 9.62793631 -8.48230743 12.2042923 C-8.48566605 13.01077209 -8.48902466 13.81725189 -8.49248505 14.64817047 C-8.50202392 17.32778187 -8.50393962 20.00733097 -8.50501251 22.68695831 C-8.50822304 24.54161862 -8.51158695 26.39627866 -8.51509857 28.25093842 C-8.52109719 32.14408709 -8.52293772 36.03721354 -8.5223465 39.93036652 C-8.52224483 44.92875134 -8.53589851 49.92699426 -8.55311871 54.92534542 C-8.56421558 58.75738433 -8.56626642 62.58938869 -8.56573677 66.42144203 C-8.56692033 68.26470237 -8.571363 70.1079635 -8.57906914 71.95120811 C-8.58882262 74.52525508 -8.58600952 77.09899074 -8.57996368 79.6730423 C-8.58558319 80.440392 -8.5912027 81.2077417 -8.59699249 81.99834442 C-8.71672176 86.20960236 -8.71672176 86.20960236 -6.33704376 89.50336456 C-3.94373894 89.7002043 -1.66618827 89.77117228 0.72825623 89.75504684 C1.83754792 89.75940717 1.83754792 89.75940717 2.96924955 89.76385558 C5.47298601 89.77121448 7.97648189 89.76418505 10.48021698 89.75733185 C12.28305675 89.75963396 14.08589558 89.76280879 15.88873243 89.76678634 C20.86286554 89.77517732 25.83692243 89.77098965 30.8110559 89.7648139 C36.16762431 89.76030791 41.52417917 89.76726391 46.88074493 89.77277374 C57.38218111 89.78168929 67.88358878 89.77973614 78.3850261 89.77394846 C86.91614334 89.76944045 95.44725257 89.76881533 103.97837067 89.77099609 C105.1903551 89.77130256 106.40233954 89.77160903 107.65105078 89.77192478 C110.11280525 89.7725642 112.57455972 89.77321262 115.03631419 89.77386996 C138.14614785 89.77957959 161.25596568 89.77300546 184.36579674 89.76226923 C204.21567165 89.75333315 224.06552316 89.75488501 243.91539764 89.76410675 C266.93984185 89.77479823 289.96427216 89.77903021 312.98871851 89.77288222 C315.44165961 89.77224509 317.89460071 89.77161635 320.34754181 89.77099609 C322.15810899 89.77053327 322.15810899 89.77053327 324.00525329 89.77006109 C332.53084169 89.76833078 341.05642132 89.77125648 349.58200836 89.7759552 C359.96507637 89.78155159 370.34811412 89.78007386 380.73117864 89.76939371 C386.03360496 89.7641202 391.33598075 89.76210867 396.63840675 89.76869202 C401.48534153 89.77461904 406.33217857 89.77143054 411.17910439 89.76073691 C412.93949825 89.758489 414.69990024 89.75966997 416.46028894 89.76448849 C418.83953145 89.77050509 421.2184321 89.76439892 423.59765625 89.75504684 C424.29292949 89.75972918 424.98820272 89.76441151 425.70454484 89.76923573 C429.62426912 89.83228878 429.62426912 89.83228878 432.66295624 87.50336456 C432.85615294 84.85843103 432.92525064 82.31864887 432.90587616 79.6730423 C432.90872368 78.46069412 432.90872368 78.46069412 432.91162872 77.22385406 C432.915342 74.54479103 432.90462537 71.86599737 432.89342499 69.18695831 C432.89223349 67.33133221 432.89177996 65.4757055 432.89203644 63.62007904 C432.89047067 59.7286782 432.88217326 55.83736924 432.86876678 51.94599152 C432.851765 46.94644925 432.84795272 41.94700794 432.84871197 36.94744015 C432.84844066 33.11544065 432.84296603 29.28346343 432.83571053 25.45147133 C432.83251831 23.60739117 432.83055517 21.76330847 432.82981682 19.91922569 C432.82765975 17.34753704 432.8189297 14.77595766 432.80821991 12.2042923 C432.8086731 11.43491837 432.80912628 10.66554443 432.8095932 9.87285614 C433.1037708 6.396966 433.1037708 6.396966 431.66295624 3.50336456 C429.32787146 3.40373623 427.02233045 3.36972731 424.68667603 3.37752342 C423.94462573 3.37606998 423.20257543 3.37461654 422.43803877 3.37311906 C419.91977028 3.36943266 417.40156132 3.3729576 414.88329315 3.37638092 C413.07235511 3.37523014 411.2614173 3.37364291 409.45047998 3.37165368 C404.44937277 3.3674544 399.44828448 3.36955373 394.44717717 3.37263989 C389.06334758 3.37489135 383.67952137 3.37141566 378.29569244 3.36865997 C367.73898196 3.36420055 357.18227856 3.36517951 346.62556779 3.36807261 C338.05008344 3.37032597 329.47460108 3.37063946 320.89911652 3.3695488 C319.07217746 3.36931895 319.07217746 3.36931895 317.20833054 3.36908446 C314.7344948 3.36876475 312.26065907 3.36844053 309.78682333 3.36811186 C286.55971333 3.36525657 263.33260726 3.36854487 240.1054979 3.37391223 C220.15182969 3.37838031 200.19816731 3.37760439 180.24449921 3.37299347 C157.1036124 3.36764858 133.96272905 3.36553126 110.82184172 3.36860573 C108.35682646 3.3689243 105.89181121 3.36923867 103.42679596 3.3695488 C102.21378725 3.36970307 101.00077854 3.36985735 99.751012 3.3700163 C91.18038421 3.37088171 82.60975861 3.36941806 74.03913116 3.36706924 C63.60222 3.36427199 53.16531637 3.36500791 42.72840607 3.37034999 C37.39776961 3.37298802 32.06714571 3.37399036 26.73650932 3.37070084 C21.86494139 3.36773995 16.99339778 3.36932718 12.12183207 3.37467839 C10.35133122 3.37580347 8.58082835 3.37520941 6.81032878 3.3728026 C4.41993466 3.36980022 2.02962596 3.37284141 -0.36076355 3.37752342 C-1.06215834 3.37518226 -1.76355312 3.37284109 -2.4862023 3.37042898 C-5.68978671 3.1139648 -5.68978671 3.1139648 -8.33704376 4.50336456 Z " fill="#7C828E" transform="translate(238.33704376220703,232.49663543701172)"/>
<path d="M0 0 C0.33 0.33 0.66 0.66 1 1 C2.76565349 1.3027691 4.53808185 1.56624482 6.3125 1.8125 C19.50552897 3.95910923 30.86910839 7.9522666 38.90625 19.0703125 C42.96649361 26.2337423 42.26944557 38.39470195 40.12890625 46.16015625 C35.16812893 56.6835101 26.98792939 62.09635852 16.32421875 65.97265625 C8.63241388 68.25998412 -5.48676524 70.75661738 -13 67 C-13.04254356 65.00045254 -13.04080783 62.99958364 -13 61 C-12 60 -12 60 -9.4375 59.9375 C-8.633125 59.958125 -7.82875 59.97875 -7 60 C-7.0714624 59.44014404 -7.1429248 58.88028809 -7.21655273 58.3034668 C-8.29596165 48.48885873 -8.10983112 38.67076915 -8.0625 28.8125 C-8.05747456 26.98372518 -8.0529135 25.15494903 -8.04882812 23.32617188 C-8.03790619 18.88408105 -8.02069923 14.44205559 -8 10 C-8.639375 9.855625 -9.27875 9.71125 -9.9375 9.5625 C-12 9 -12 9 -13 8 C-13.04080783 6.00041636 -13.04254356 3.99954746 -13 2 C-8.50492881 0.24582588 -4.8215583 -0.28362108 0 0 Z " fill="#3E4156" transform="translate(250,243)"/>
<path d="M0 0 C3.125 0.1875 3.125 0.1875 5.3125 0.75 C7.3425204 1.40943706 7.3425204 1.40943706 10.125 0.1875 C20.44513064 -0.64042093 30.93504346 0.42692266 39.125 7.1875 C44.00292307 12.56572287 44.47460764 16.00189016 44.40625 23.13671875 C43.91002454 28.51938659 41.76200939 31.45127792 38.0625 35.375 C30.92692685 39.77780045 23.42022494 41.64355082 15.125 42.1875 C15.97320312 42.66058594 16.82140625 43.13367188 17.6953125 43.62109375 C26.38173482 48.50486554 34.79559905 53.71895713 43.125 59.1875 C42.795 61.4975 42.465 63.8075 42.125 66.1875 C35.2090512 67.02074684 31.42452929 64.37292284 25.8125 60.5625 C24.13329471 59.46020257 22.45361138 58.35863299 20.7734375 57.2578125 C19.97389648 56.72704102 19.17435547 56.19626953 18.35058594 55.64941406 C14.35600293 53.02550412 10.24071725 50.6152522 6.125 48.1875 C6.07601563 49.46367187 6.02703125 50.73984375 5.9765625 52.0546875 C5.90153809 53.72398072 5.82599012 55.39325046 5.75 57.0625 C5.70359375 58.32513672 5.70359375 58.32513672 5.65625 59.61328125 C5.59824219 60.82177734 5.59824219 60.82177734 5.5390625 62.0546875 C5.5076416 62.79831543 5.4762207 63.54194336 5.44384766 64.30810547 C5.125 66.1875 5.125 66.1875 3.125 68.1875 C0.33222787 68.54554771 -1.21428526 68.67818396 -3.51387024 66.97038269 C-5.29768987 64.63383754 -5.23810928 63.27067001 -5.21557617 60.34887695 C-5.21534958 59.3680867 -5.21512299 58.38729645 -5.21488953 57.37678528 C-5.19940567 56.32045395 -5.18392181 55.26412262 -5.16796875 54.17578125 C-5.16372391 53.09241989 -5.15947906 52.00905853 -5.15510559 50.89286804 C-5.13829569 47.42832723 -5.10063848 43.96436538 -5.0625 40.5 C-5.04745619 38.15300318 -5.03376726 35.80599726 -5.02148438 33.45898438 C-4.98838461 27.70162495 -4.93816205 21.94460383 -4.875 16.1875 C-6.195 15.8575 -7.515 15.5275 -8.875 15.1875 C-8.875 13.2075 -8.875 11.2275 -8.875 9.1875 C-7.555 8.5275 -6.235 7.8675 -4.875 7.1875 C-4.936875 6.011875 -4.936875 6.011875 -5 4.8125 C-4.81621901 0.95309921 -3.79908363 0.24776632 0 0 Z " fill="#3F4257" transform="translate(492.875,243.8125)"/>
<path d="M0 0 C3.68611716 0.57821446 4.70856651 1.69302567 6.96313477 4.56494141 C9.29112436 8.24423264 10.46834323 12.30265337 11.75 16.4375 C12.20040649 17.82062378 12.20040649 17.82062378 12.65991211 19.23168945 C14.02979366 23.50437113 15.29532421 27.7698283 16.3125 32.140625 C16.55697876 33.17521851 16.55697876 33.17521851 16.80639648 34.23071289 C17.22297602 36.06829406 17.59925176 37.91488033 17.97265625 39.76171875 C18.96270548 42.81711724 18.96270548 42.81711724 22.30859375 43.89453125 C23.73365234 44.19423828 23.73365234 44.19423828 25.1875 44.5 C25.875 47.8125 25.875 47.8125 26.1875 51.5 C24.70703125 53.23046875 24.70703125 53.23046875 23.1875 54.5 C23.52974609 55.51320313 23.52974609 55.51320313 23.87890625 56.546875 C24.31009766 57.88492188 24.31009766 57.88492188 24.75 59.25 C25.04003906 60.13171875 25.33007812 61.0134375 25.62890625 61.921875 C26.20829419 64.59597316 26.14009173 65.96736092 25.1875 68.5 C24.1875 69.5 24.1875 69.5 20.625 69.5625 C19.490625 69.541875 18.35625 69.52125 17.1875 69.5 C16.53003896 68.15144038 15.88718025 66.79575969 15.25 65.4375 C14.89035156 64.68339844 14.53070312 63.92929687 14.16015625 63.15234375 C13.1875 60.5 13.1875 60.5 12.1875 53.5 C3.6075 53.5 -4.9725 53.5 -13.8125 53.5 C-14.4725 56.8 -15.1325 60.1 -15.8125 63.5 C-17.4375 67.125 -17.4375 67.125 -18.8125 69.5 C-24.5625 69.625 -24.5625 69.625 -26.8125 68.5 C-27.18774026 62.49364756 -25.90001355 57.90084233 -23.890625 52.26953125 C-23.58936707 51.39785812 -23.28810913 50.526185 -22.97772217 49.62809753 C-22.01604746 46.85260834 -21.03968589 44.08256129 -20.0625 41.3125 C-19.42086959 39.47105314 -18.78023527 37.62925889 -18.140625 35.78710938 C-17.21055105 33.10961738 -16.2790121 30.43271142 -15.34115601 27.75793457 C-13.3614365 22.1114749 -11.45406584 16.44949679 -9.64013672 10.74731445 C-7.90236738 6.02868118 -5.22490283 0.92887161 0 0 Z " fill="#404358" transform="translate(576.8125,242.5)"/>
<path d="M0 0 C1.10428596 -0.00287018 1.10428596 -0.00287018 2.23088074 -0.00579834 C3.78844545 -0.00715865 5.34602156 -0.00347293 6.90356445 0.00488281 C9.27386362 0.01553911 11.64339698 0.00500646 14.01367188 -0.0078125 C15.52994958 -0.00648998 17.0462268 -0.00392568 18.5625 0 C19.61749443 -0.00607269 19.61749443 -0.00607269 20.69380188 -0.01226807 C30.29282034 0.07797659 30.29282034 0.07797659 33.48046875 3.265625 C33.60546875 5.765625 33.60546875 5.765625 33.48046875 8.265625 C32.48046875 9.265625 32.48046875 9.265625 29.42944336 9.37915039 C28.08055604 9.37899134 26.73166261 9.37330112 25.3828125 9.36328125 C24.31952477 9.36115883 24.31952477 9.36115883 23.23475647 9.35899353 C20.96245163 9.35337943 18.690244 9.34082463 16.41796875 9.328125 C14.88086079 9.32311181 13.3437513 9.31854859 11.80664062 9.31445312 C8.03118208 9.3042547 4.25593471 9.28468232 0.48046875 9.265625 C0.48046875 15.535625 0.48046875 21.805625 0.48046875 28.265625 C3.06181641 28.24822266 3.06181641 28.24822266 5.6953125 28.23046875 C7.93619684 28.22109266 10.17708234 28.21199227 12.41796875 28.203125 C13.55427734 28.19474609 14.69058594 28.18636719 15.86132812 28.17773438 C16.94091797 28.17451172 18.02050781 28.17128906 19.1328125 28.16796875 C20.6331604 28.16011353 20.6331604 28.16011353 22.16381836 28.15209961 C24.48046875 28.265625 24.48046875 28.265625 25.48046875 29.265625 C25.60546875 32.765625 25.60546875 32.765625 25.48046875 36.265625 C24.48046875 37.265625 24.48046875 37.265625 22.25561523 37.37915039 C21.29727783 37.37391357 20.33894043 37.36867676 19.3515625 37.36328125 C18.31708984 37.36005859 17.28261719 37.35683594 16.21679688 37.35351562 C15.12818359 37.34513672 14.03957031 37.33675781 12.91796875 37.328125 C11.27924805 37.32135742 11.27924805 37.32135742 9.60742188 37.31445312 C6.8983838 37.30262326 4.18945276 37.28614043 1.48046875 37.265625 C1.41988281 38.36261719 1.35929687 39.45960938 1.296875 40.58984375 C1.21242377 42.04428154 1.12777809 43.49870805 1.04296875 44.953125 C0.98399414 46.0349707 0.98399414 46.0349707 0.92382812 47.13867188 C0.88193359 47.84443359 0.84003906 48.55019531 0.796875 49.27734375 C0.74188843 50.24353638 0.74188843 50.24353638 0.68579102 51.22924805 C0.44514599 53.61595458 -0.01925635 55.92092021 -0.51953125 58.265625 C0.43937012 58.2248584 1.39827148 58.1840918 2.38623047 58.14208984 C5.93794814 57.99381726 9.49007216 57.85910212 13.04248047 57.72851562 C14.58103743 57.67005241 16.11945855 57.60789415 17.65771484 57.54199219 C19.8666104 57.44799663 22.07565088 57.36722414 24.28515625 57.2890625 C25.3196138 57.24076797 25.3196138 57.24076797 26.37496948 57.1914978 C28.07613852 57.13792252 29.78000873 57.1929468 31.48046875 57.265625 C32.14046875 57.925625 32.80046875 58.585625 33.48046875 59.265625 C33.29296875 61.765625 33.29296875 61.765625 32.48046875 64.265625 C28.6950053 66.7892673 25.68649858 66.53671906 21.3046875 66.49609375 C20.50190872 66.49563553 19.69912994 66.49517731 18.87202454 66.4947052 C17.17321292 66.49168481 15.47440403 66.48380484 13.77563477 66.47143555 C11.18821274 66.45326715 8.60115082 66.45092538 6.01367188 66.45117188 C4.36067402 66.44625281 2.70767857 66.4404228 1.0546875 66.43359375 C0.28573654 66.43248093 -0.48321442 66.4313681 -1.27546692 66.43022156 C-5.46194238 66.39366538 -9.39515887 66.08494201 -13.51953125 65.265625 C-14.64453125 59.515625 -14.64453125 59.515625 -13.51953125 57.265625 C-12.19953125 57.265625 -10.87953125 57.265625 -9.51953125 57.265625 C-9.53113281 56.67136719 -9.54273438 56.07710938 -9.5546875 55.46484375 C-9.62499421 49.00666987 -9.20304041 42.68572887 -8.51953125 36.265625 C-9.83953125 36.265625 -11.15953125 36.265625 -12.51953125 36.265625 C-12.84953125 33.955625 -13.17953125 31.645625 -13.51953125 29.265625 C-11.86953125 28.935625 -10.21953125 28.605625 -8.51953125 28.265625 C-8.62915941 25.1398854 -8.75984366 22.01537719 -8.89453125 18.890625 C-8.92546875 18.00117188 -8.95640625 17.11171875 -8.98828125 16.1953125 C-9.02695312 15.34453125 -9.065625 14.49375 -9.10546875 13.6171875 C-9.13688965 12.83166504 -9.16831055 12.04614258 -9.20068359 11.23681641 C-9.35947775 9.03559561 -9.35947775 9.03559561 -11.51953125 7.265625 C-11.33203125 4.765625 -11.33203125 4.765625 -10.51953125 2.265625 C-6.88631326 -0.15652032 -4.19845882 -0.02396003 0 0 Z " fill="#3F4257" transform="translate(316.51953125,243.734375)"/>
<path d="M0 0 C3.1262317 6.40740211 5.10497139 12.70401836 6.75 19.625 C9.74328639 31.69435125 13.72890915 43.33036179 18 55 C18.99 55 19.98 55 21 55 C24.83958972 43.39867642 28.42815423 31.86103292 31.09765625 19.93359375 C34.87755409 3.12244591 34.87755409 3.12244591 38 0 C40.76393359 -0.35435046 42.4020613 -0.31890064 44.875 1 C46.99793985 4.77411529 45.36432861 9.54598764 44.35351562 13.58007812 C43.53919337 16.48071461 42.68426995 19.36611339 41.8125 22.25 C41.50078857 23.29687988 41.18907715 24.34375977 40.86791992 25.42236328 C40.22701461 27.57238176 39.58354205 29.72163662 38.9375 31.87011719 C38.06051585 34.79796531 37.19901217 37.72980746 36.34375 40.6640625 C29.26004844 64.87060409 29.26004844 64.87060409 24 68 C21.81640625 68.46875 21.81640625 68.46875 19.5625 68.5 C18.82128906 68.5309375 18.08007812 68.561875 17.31640625 68.59375 C13.82066482 67.69770835 12.35485238 65.6866984 10 63 C8.53369141 59.89160156 8.53369141 59.89160156 7.3515625 56.390625 C7.13307648 55.75455826 6.91459045 55.11849152 6.68948364 54.46315002 C5.98541024 52.39707626 5.30419487 50.32437285 4.625 48.25 C4.14527057 46.81586086 3.66512341 45.3818614 3.18457031 43.94799805 C0.19480711 34.95732596 -2.63093711 25.91835939 -5.25 16.8125 C-5.5495459 15.78737305 -5.8490918 14.76224609 -6.15771484 13.70605469 C-6.4202002 12.75762695 -6.68268555 11.80919922 -6.953125 10.83203125 C-7.29585449 9.60577026 -7.29585449 9.60577026 -7.64550781 8.35473633 C-8.0585165 5.61130053 -7.80848001 3.64700014 -7 1 C-4.53721199 -0.231394 -2.7204945 -0.07159196 0 0 Z " fill="#404358" transform="translate(429,243)"/>
<path d="M0 0 C2.5625 0.4375 2.5625 0.4375 4.11035156 2.59765625 C5.59215778 5.4954992 6.50794717 8.17429474 7.359375 11.3125 C7.67503418 12.45348145 7.99069336 13.59446289 8.31591797 14.77001953 C8.64479004 15.98028809 8.97366211 17.19055664 9.3125 18.4375 C11.84957553 27.53903669 14.46361476 36.59313488 17.4375 45.5625 C17.86627441 46.87541016 17.86627441 46.87541016 18.30371094 48.21484375 C18.70638184 49.41173828 18.70638184 49.41173828 19.1171875 50.6328125 C19.34905762 51.32391113 19.58092773 52.01500977 19.81982422 52.72705078 C20.53048904 54.65014306 20.53048904 54.65014306 22.5625 56.4375 C27.11014534 47.29383011 29.49351249 37.57467671 32.04296875 27.73828125 C32.30416504 26.73104004 32.56536133 25.72379883 32.83447266 24.68603516 C33.34979663 22.69062689 33.86137451 20.69424628 34.36865234 18.69677734 C38.53270378 2.46729622 38.53270378 2.46729622 40.5625 0.4375 C47.2825 1.1575 47.2825 1.1575 48.5625 2.4375 C48.10133615 16.96416114 42.39174043 31.27908513 37.97265625 44.99609375 C37.08210368 47.76901831 36.23016126 50.54630959 35.43359375 53.34765625 C34.94052734 55.06275391 34.94052734 55.06275391 34.4375 56.8125 C34.16679687 57.78960937 33.89609375 58.76671875 33.6171875 59.7734375 C32.14800479 63.48448419 30.19861852 66.61944074 26.5625 68.4375 C24.57421875 68.74609375 24.57421875 68.74609375 22.25 68.875 C21.49074219 68.93558594 20.73148437 68.99617188 19.94921875 69.05859375 C16.23588195 68.09227533 14.51645145 65.55376853 12.5625 62.4375 C11.17144127 59.5913091 10.09931729 56.67869642 9.0625 53.6875 C8.76553223 52.85694092 8.46856445 52.02638184 8.16259766 51.1706543 C5.69682803 44.13728929 3.66809597 37.01410441 1.76171875 29.8125 C0.96883003 26.84496326 0.09708292 23.92021256 -0.85546875 21 C-1.20520752 19.92721802 -1.20520752 19.92721802 -1.56201172 18.83276367 C-2.20642644 16.88191131 -2.86255898 14.93494062 -3.51953125 12.98828125 C-4.47765013 9.28219589 -4.75228382 6.24779372 -4.4375 2.4375 C-2.4375 0.4375 -2.4375 0.4375 0 0 Z " fill="#404358" transform="translate(363.4375,242.5625)"/>
<path d="M0 0 C11.32476917 1.13247692 11.32476917 1.13247692 16.3125 3.3125 C17.76076172 3.92544922 17.76076172 3.92544922 19.23828125 4.55078125 C24.44379604 7.28238802 27.83890716 10.27613975 30.26953125 15.59375 C32.11889582 21.68577447 32.05454077 28.43933707 29.5 34.3125 C24.58051406 42.50029493 18.03964294 45.79823394 9.05078125 48.37109375 C6 49 6 49 1 49 C0.67 32.83 0.34 16.66 0 0 Z " fill="#FBFBFC" transform="translate(251,253)"/>
<path d="M0 0 C1.29228516 -0.01224609 2.58457031 -0.02449219 3.91601562 -0.03710938 C5.16447266 -0.03904297 6.41292969 -0.04097656 7.69921875 -0.04296875 C9.38857544 -0.04913208 9.38857544 -0.04913208 11.11206055 -0.05541992 C14.58843948 0.20844437 18.72794749 0.60294749 21.3125 3.1875 C21.5 5.625 21.5 5.625 21.3125 8.1875 C19.3125 10.1875 19.3125 10.1875 17.4296875 10.41796875 C16.68976562 10.40378906 15.94984375 10.38960937 15.1875 10.375 C14.46304688 10.36855469 13.73859375 10.36210937 12.9921875 10.35546875 C10.68586289 10.21090321 8.43573214 9.96957927 6.14501953 9.67700195 C4.24792236 9.43469849 4.24792236 9.43469849 2.3125 9.1875 C2.30441315 9.89715912 2.29632629 10.60681824 2.28799438 11.33798218 C2.21012497 18.01864337 2.12285789 24.6991075 2.02497292 31.37950706 C1.97497962 34.81416136 1.92865022 38.24878445 1.890625 41.68359375 C1.8467726 45.63038688 1.78710852 49.57686366 1.7265625 53.5234375 C1.70923569 55.37816177 1.70923569 55.37816177 1.69155884 57.27035522 C1.67168915 58.41138702 1.65181946 59.55241882 1.63134766 60.72802734 C1.61802399 61.736185 1.60470032 62.74434265 1.5909729 63.78305054 C1.3125 66.1875 1.3125 66.1875 -0.6875 68.1875 C-4.25 68.375 -4.25 68.375 -7.6875 68.1875 C-9.74206751 66.13293249 -8.85160109 61.79938892 -8.85546875 58.97265625 C-8.85879715 58.12891953 -8.86212555 57.2851828 -8.86555481 56.4158783 C-8.87063663 54.61425319 -8.87296275 52.8126186 -8.87280273 51.01098633 C-8.87494405 48.32030302 -8.89295648 45.63006119 -8.91210938 42.93945312 C-8.94799757 31.55343034 -8.2082999 20.47071509 -6.6875 9.1875 C-7.78022217 9.34903564 -8.87294434 9.51057129 -9.9987793 9.67700195 C-13.21470757 10.12206821 -16.25883781 10.35233453 -19.5 10.375 C-20.43457031 10.38917969 -21.36914062 10.40335938 -22.33203125 10.41796875 C-24.6875 10.1875 -24.6875 10.1875 -26.6875 8.1875 C-26.35778521 4.89035207 -26.0648161 3.5648161 -23.6875 1.1875 C-15.83932895 -0.11088025 -7.93713826 0.00399453 0 0 Z " fill="#414459" transform="translate(639.6875,243.8125)"/>
<path d="M0 0 C3.28652016 2.04476191 5.4841797 4.70790446 6.86328125 8.27734375 C6.99513276 12.43066635 7.02672733 14.83392401 4.40234375 18.08984375 C-0.98912575 22.98689901 -5.57597792 23.41886269 -12.76171875 23.40234375 C-13.88835937 23.40492188 -15.015 23.4075 -16.17578125 23.41015625 C-19.13671875 23.27734375 -19.13671875 23.27734375 -22.13671875 22.27734375 C-22.13671875 15.34734375 -22.13671875 8.41734375 -22.13671875 1.27734375 C-15.12868906 -1.05866615 -7.23657646 -2.44747101 0 0 Z " fill="#FAFAFA" transform="translate(520.13671875,253.72265625)"/>
<path d="M0 0 C2 1 2 1 2.85375977 3.12963867 C3.13018311 4.0497876 3.40660645 4.96993652 3.69140625 5.91796875 C3.99626953 6.92537109 4.30113281 7.93277344 4.61523438 8.97070312 C4.92783203 10.03224609 5.24042969 11.09378906 5.5625 12.1875 C6.03719727 13.75081055 6.03719727 13.75081055 6.52148438 15.34570312 C7.99712438 20.27390214 9.14958252 24.89749515 10 30 C3.73 30 -2.54 30 -9 30 C-7.69943999 24.14747994 -6.41885107 18.91109901 -4.5 13.3125 C-4.0771875 12.07113281 -3.654375 10.82976562 -3.21875 9.55078125 C-2.8165625 8.37902344 -2.414375 7.20726562 -2 6 C-1.33130047 4.00067877 -0.66389978 2.00092017 0 0 Z " fill="#F7F7F8" transform="translate(576,256)"/>
</svg>
